<?xml version="1.0" encoding="utf-8"?>
<!-- Generator: Adobe Illustrator 19.0.0, SVG Export Plug-In . SVG Version: 6.00 Build 0)  -->
<svg version="1.1" id="Layer_0_xA0_Image_1_" xmlns="http://www.w3.org/2000/svg" xmlns:xlink="http://www.w3.org/1999/xlink"
	 x="0px" y="0px" viewBox="-205 297 200 200" fill="#d6d6ee" style="enable-background:new -205 297 200 200;" xml:space="preserve">
<image style="display:none;overflow:visible;enable-background:new;" width="162" height="194" id="Layer_0_xA0_Image" xlink:href="6BDF0CB8.png"  transform="matrix(1 0 0 1 -391 594)">
</image>
<g>
	<polyline id="pathBase_1_" points="-26,354.7 -26,415.7 -80,447.3 -102,435.3 -47.3,404.3 -47.3,341.3 -26,352.7 	"/>
	<polyline id="pathBase_3_" points="-161.5,401.3 -161.5,462.3 -107.5,494 -85.5,482 -140.2,451 -140.2,388 -161.5,399.3 	"/>
	<polygon points="-188,383.8 -188,444.8 -188,446.8 -166.7,458.1 -166.7,395.1 -140,380 -140,355.6 	"/>
	<polygon points="-140,325.8 -140,349.8 -188,377.5 -188,353.3 	"/>
	<polygon points="-79.5,353.3 -118.7,330.8 -118.7,354.9 -79.5,377.5 	"/>
	<polygon points="-26,423.2 -26,447.3 -80.5,478.2 -134,447.3 -134,423.2 -80.8,453.8 	"/>
	<polygon points="-118.7,300 -118.7,323 -74,349.8 -74,412.3 -53,400 -53,337.5 	"/>
</g>
</svg>
